<?xml version="1.0" encoding="UTF-8"?>
<svg width="56px" height="56px" viewBox="0 0 56 56" version="1.1" xmlns="http://www.w3.org/2000/svg" xmlns:xlink="http://www.w3.org/1999/xlink">
    <title>Thumb / LightBG / NewBlue-Regular@1x</title>
    <g id="Thumb-/-LightBG-/-NewBlue-Regular" stroke="none" stroke-width="1" fill="none" fill-rule="evenodd">
        <g id="Group">
            <rect id="Rectangle" fill="#FFFFFF" x="9" y="5" width="41" height="47"></rect>
            <path d="M50,0 C53.3137085,1.44626758e-15 56,2.6862915 56,6 L56,6 L56,50 C56,53.3137085 53.3137085,56 50,56 L50,56 L6,56 C2.6862915,56 3.9323804e-15,53.3137085 0,50 L0,50 L0,6 C-1.29399067e-15,2.6862915 2.6862915,-2.79460044e-16 6,0 L6,0 Z M15.9670717,6.76148148 L12.32,6.76148148 L12.1878918,6.77761857 C11.814682,6.87202718 11.6583537,7.35868663 11.9577708,7.65101411 L11.9577708,7.65101411 L32.808,28.006 L11.9579158,48.3488444 L11.8746073,48.4526687 C11.6733678,48.7809273 11.9014551,49.2385185 12.32,49.2385185 L12.32,49.2385185 L15.9025193,49.2385185 L16.0256485,49.2248241 L16.1347883,49.1858157 L16.2310638,49.1246058 L37.3236392,28.3777317 L37.4095973,28.2666863 C37.5242547,28.0676122 37.4958722,27.8085264 37.3243133,27.6391317 L37.3243133,27.6391317 L16.331385,6.91103214 L15.9670717,6.76148148 Z M42.84,6.76148148 L40.32,6.76148148 C40.0336301,6.76148148 39.8014815,6.99363013 39.8014815,7.28 L39.8014815,48.72 C39.8014815,49.0063699 40.0336301,49.2385185 40.32,49.2385185 L42.84,49.2385185 C43.1263699,49.2385185 43.3585185,49.0063699 43.3585185,48.72 L43.3585185,7.28 C43.3585185,6.99363013 43.1263699,6.76148148 42.84,6.76148148 Z" id="Fill-21" fill="#106FFF"></path>
            <g id="Group-5" transform="translate(38.320000, 5.280000)"></g>
        </g>
    </g>
</svg>