<svg version="1.2" xmlns="http://www.w3.org/2000/svg" viewBox="0 0 1515 456" width="1515" height="456">
	<title>Pearson_2022_annual_report-1-pdf-svg</title>
	<defs>
		<clipPath clipPathUnits="userSpaceOnUse" id="cp1">
			<path d="m-314.28-304.67h5671.25v8016.55h-5671.25z"/>
		</clipPath>
	</defs>
	<style>
		.s0 { fill: #ffffff } 
		.s1 { fill: #000000 } 
	</style>
	<g id="Clip-Path: Page 1" clip-path="url(#cp1)">
		<g id="Page 1">
			<path id="Path 5" fill-rule="evenodd" class="s0" d="m946.6 327c-7.6 3.8-13.8 5.3-21.4 5.3-16.2 0-22.8-6.2-24.3-23.8-15.2 16.6-30 24.7-46.2 24.7-30 0-40.4-19-40.4-34.7 0-14.8 6.6-25.7 19.5-32.9 15.2-8.1 35.2-12.8 50.5-16.2 7.1-1.9 10.9-3.3 15.2-4.2v-19.6c0-25.7-7.6-36.1-25.7-36.1-11.4 0-21.4 3.3-26.7 9 9.1 10.5 10.5 20.5 2.4 28.6-3.8 4.3-9.5 6.6-15.2 6.2-8.6-1.5-14.8-8.6-14.8-18.1 0-19.1 24.8-34.3 56.2-34.3 35.2 0 53.3 15.2 53.3 45.2v76.7c0 8.5 1.4 13.8 5.3 16.1q3.3 2.4 10 1h0.4c1.9-0.5 3.4 0.5 3.8 1.9 1 1.9 0 4.3-1.9 5.2zm-47.1-71.8c-39.1 9.5-53.8 18.5-53.8 37.6 0 11.4 4.3 25.2 24.3 25.2 14.3 0 26.2-14.8 29.5-19.5zm379 78.5c-41.9 0-73.3-32.8-73.3-76.1 0-42.9 32.9-77.6 73.3-77.6 41 0 72.9 33.3 72.9 76.1 0 48.1-37.6 77.6-72.9 77.6zm-1.9-145.2c-18.1 0-38.5 7.6-38.5 68.1 0 46.2 13.3 69 41.4 69 27.1 0 39-21.4 39-69 0-45.7-13.8-68.1-41.9-68.1zm-692.8 135.2c1.9 0.5 3.3 1.9 3.3 3.8v0.5c0 1.4-1.9 3.3-3.8 3.3h-88.6c-1.9 0-3.8-1.9-3.8-3.3v-0.9c0-1.5 1.5-2.9 3.4-3.4 22.4-1.9 27.6-10 27.6-20.9v-152.8c0-21.4-20.5-17.6-27.6-20.5-1.9-0.5-2.9-1.9-2.9-3.8 0-1.9 1.4-3.3 3.3-3.3h83.4c40.9 0 90 10.4 90 60.9 0 12.4-3.8 30-20.5 44.3-15.7 12.8-40 20-71.9 20h-21.4v55.2c0 11.4 5.2 19 29.5 20.9zm-4.8-192.8h-24.7v106.7h23.8c44.3 0 53.3-19.6 53.3-54.8 0-25.7-6.2-51.9-52.4-51.9z"/>
			<path id="Path 6" fill-rule="evenodd" class="s0" d="m780.9 198c11.5 11.9 16.7 29.1 15.3 48.1v1q0 0.4-0.5 0.4h-98.1c-0.5 2.9-0.5 5.3-0.5 7.7 0 46.6 25.7 63.3 50 63.3 19.1 0 30-9.1 42.4-24.8 1.4-1.4 3.3-1.9 4.8-0.9l0.4 0.4c1.5 1 1.9 2.9 1 4.3-9.5 15.7-26.2 36.2-60.5 36.2-40.5 0-70-31.9-70-75.7 0-42.8 31.4-78.1 70-78.1 19.1 0 35.3 6.2 45.7 18.1zm-17.1 39.5c1.4-19.5-1.4-33.3-8.6-40.9-5.2-5.2-12.4-8.1-21.9-8.1-19.5 0-31.9 17.6-35.2 49zm424.7 47.2c0 13.3-4.3 25.7-12.4 34.2-8.5 9.6-21.9 14.8-38.1 14.8-10.4 0-27.1-3.8-38-10.5l-9.6 9.1q-0.9 1.4-2.4 1.4h-3.3q-0.5-0.5-0.5-0.9v-50c0-1.9 1.5-3.4 3.4-3.4 0.3 0 2.8 0 2.8 0l0.5 0.5c20.5 37.1 29.5 45.2 51 45.2 11.4 0 27.6-7.6 27.6-24.2 0-15.3-10-23.4-38.6-31-29-8.1-46.2-17.6-46.2-43.3 0-27.6 21.4-46.7 52.4-46.7 12.4 0 24.8 4.3 31.9 8.6l6.2-7.1q0.9-1.5 2.4-1.5h3.3q0.5 0 1 0.5v45.2c0 1.5-1.9 3.4-3.9 3.4h-2.3q-0.5 0-0.5-0.5v-0.5c-19.1-30.9-26.2-39.5-44.3-39.5-14.8 0-25.7 10-25.7 23.8 0 11.9 10.5 19.5 37.1 27.1q0 0 0.5 0c33.3 9.6 45.7 21.9 45.7 45.3zm-208.5-80c0-6.2-1.9-12.4-14.8-14.3-1.4 0-2.9-1.4-2.9-3.3v-0.5c0-1.9 1.5-3.3 3.4-3.3l38.5-1c2.4 0 4.3 1.5 4.3 3.8v23.4c11.9-20.5 26.2-29.1 41-29.1 18.1 0 24.3 11.9 24.3 22.4 0 10.9-7.2 18.1-18.1 18.1-10.5 0-18.1-7.2-18.1-18.1 0-1.9 0-4.8 0.9-6.7-12.4 2.4-19.5 11.5-29.5 28.1v89c0 8.1 3.8 10.5 17.6 11 1.9 0.5 3.4 1.9 3.4 3.8 0 1.4-1.5 3.3-3.4 3.3h-60.9c-1.9 0-3.4-1.9-3.4-3.8 0-1.4 1.5-3.3 3.4-3.3 12.4-0.5 14.3-3.3 14.3-11zm420.9-22.3q0.9 0 2.4 0.9 0.9 1 0.9 2.4v25.2c0 0 12.4-29.5 52.9-29.5h0.5c25.2 0 40 15.7 40 43.8v88.1c0 7.6 1.9 10.4 14.2 10.9 1.5 0 2.9 1.9 2.9 3.4 0 1.9-1.4 3.3-3.3 3.3h-54.8c-1.9 0-3.3-1.4-3.3-3.3 0-2 1.4-3.4 3.3-3.4 10-0.9 11.4-3.3 11.4-10.9v-79.5c0-26.2-7.6-36.2-26.6-36.2-12.9 0-23.4 11.4-30 20.5 0 0-3.4 4.2-7.2 12.3l0.5 82.9c0 7.6 1.4 10 11.4 10.9 1.5 0 2.9 1.4 2.9 3.4 0 1.9-1.4 3.3-3.3 3.3h-54.3c-1.9 0-3.4-1.4-3.4-3.3 0-1.5 1.5-3.4 2.9-3.4 12.4-0.9 14.3-3.3 14.3-10.9v-108.6c0-6.2-1.4-12.3-14.3-14.2-1.9 0-2.9-1.5-2.9-3.4v-0.5c0-1.9 1.5-3.3 3.4-3.3z"/>
			<path id="Path 7" class="s0" d="m326.2 29.5c96.6 54.8 119 178.1 51.9 302.3-59.1 109.5-187.6 156.1-283.3 100.4-96.2-55.7-114.8-211.3-73.4-300.8 59.5-129.5 198.6-162.8 304.8-101.9z"/>
			<path id="Path 8" fill-rule="evenodd" class="s1" d="m324.3 123.8c18.5 20 24.7 50.9 21.4 75.7-3.8 28.5-20.9 55.2-50 72.8-22.9 13.8-52.9 19-82.4 19.5-0.4 4.8-0.9 21-1.4 23.3-1 3.8-2.4 5.8-3.8 8.1-3.3 3.8-8.6 6.7-14.3 8.1-4.3 1.5-8.6 1.9-11.4 1.9q-1 0-1.5 0c-3.3-0.4-7.1-1.9-9-4.3q-3.3-3.8-3.8-9.5l-0.5-2.8c-0.5-2.9-3.8-141.9-3.3-139 0.5-16.7 27.6-19.6 41.9-16.7 14.7 2.9 10.9 20.5 10.5 42.4 0 0-0.5 28.5-1.9 59 18.5-1 33.3-6.2 47.1-12.9 28.1-13.8 42.9-35.2 42.9-66.6 0-30.9-30.5-66.2-86.7-66.2-56.2 0-80.5 14.3-107.6 36.7-6.2 5.2-11 10.5-15.3 13.8-4.3 3.3-16.2 3.8-19.5-4.3-3.8-9.5 3.3-20 7.6-25.2 6.7-8.1 22.9-24.3 41-33.3 20.5-11 45.7-22.4 80.9-23.4 31.9-0.9 82.4 1.9 118.6 42.4m-112.9 247.5c0 5.7-2.3 11-6.6 14.3-3.8 3.4-8.6 4.8-14.3 4.8q-3.8 0-7.1-1-6.5-2.1-10-5.7c-2-2.4-3.4-5.7-3.9-9-0.9-5.7 0.5-11.5 3.9-16.2 4.2-5.7 10-9.1 16.6-9.1q1.4 0 3.4 0c3.3 1 6.6 2.4 9.5 4.8 5.2 4.3 8.5 10.5 8.5 17.1z"/>
		</g>
	</g>
</svg>