<svg version="1.2" xmlns="http://www.w3.org/2000/svg" viewBox="0 0 1420 1556" width="1420" height="1556">
	<title>Pearson_2022_annual_report-1-pdf-svg (2)-svg</title>
	<style>
		.s0 { fill: #007da5 } 
		.s1 { fill: #ffffff } 
	</style>
	<g id="Clip-Path: Page 1">
		<g id="Page 1">
			<path id="Path 7" class="s0" d="m1111.1 100.7c329.8 186.8 406.2 607.5 177.1 1031.5-201.5 373.6-640.2 532.8-966.8 342.7-328.3-190-391.6-721.2-250.3-1026.6 203.1-441.8 677.6-555.5 1040-347.6z"/>
			<path id="Path 8" fill-rule="evenodd" class="s1" d="m1104.6 422.3c63.4 68.3 84.5 173.9 73.1 258.3-13 97.5-71.5 188.4-170.6 248.5-78 47.2-180.4 65-281.1 66.6-1.7 16.3-3.3 71.5-4.9 79.6-3.3 13-8.1 19.5-13 27.7-11.4 13-29.3 22.7-48.8 27.6-14.6 4.8-29.2 6.5-38.9 6.5q-3.3 0-4.9 0c-11.4-1.7-24.4-6.5-30.9-14.6q-11.4-13-13-32.5l-1.6-9.8c-1.6-9.7-13-484-11.4-474.3 1.6-56.9 94.2-66.6 143-56.9 50.4 9.8 37.4 69.9 35.7 144.6 0 0-1.6 97.5-6.5 201.4 63.4-3.2 113.8-21.1 160.9-43.8 95.9-47.1 146.3-120.2 146.3-227.4 0-105.6-104-225.8-295.8-225.8-191.7 0-274.6 48.7-367.2 125.1-21.1 17.8-37.4 35.7-52 47.1-14.6 11.3-55.3 13-66.6-14.7-13-32.4 11.3-68.2 26-86.1 22.7-27.6 78-82.8 139.7-113.7 69.9-37.3 156-76.3 276.2-79.6 108.9-3.2 281.2 6.5 404.7 144.6m-385.2 844.7c0 19.5-8.1 37.4-22.7 48.7-13 11.4-29.3 16.3-48.8 16.3q-13 0-24.3-3.3-22-7.3-34.1-19.5c-6.5-8.1-11.4-19.5-13-30.8-3.3-19.5 1.6-39 13-55.3 14.6-19.5 34.1-30.8 56.8-30.8q4.9 0 11.4 0c11.4 3.2 22.7 8.1 32.5 16.2 17.9 14.6 29.2 35.8 29.2 58.5z"/>
		</g>
	</g>
</svg>