<?xml version="1.0" encoding="UTF-8" standalone="no"?>
<svg xmlns:rdf="http://www.w3.org/1999/02/22-rdf-syntax-ns#" xmlns="http://www.w3.org/2000/svg" height="274.53" width="1007" version="1.1" xmlns:cc="http://creativecommons.org/ns#" xmlns:dc="http://purl.org/dc/elements/1.1/" viewBox="-1.6629 -1.6629 203.23165 55.429998">
 <g>
  <path d="m-1.7129 53.767h203.33v-55.43h-203.33v55.43z"/>
  <path d="m43.139 20.848c-2.385-2.3825-3.9075-3.86-3.9075-3.86s-1.5225 1.4775-3.9038 3.86c-1.2588 1.2588-4.09 4.3788-4.09 7.4775 0 2.0688 1.6788 3.7425 3.745 3.7425 1.3575 0 2.5412-0.72 3.2012-1.8 0.0637-0.08 0.17125-0.1475 0.29375-0.1475 0.19125 0 0.36875 0.13875 0.34625 0.30625-0.14375 1.1138-0.77125 3.8638-3.2462 4.79h7.3088c-2.475-0.92625-3.1038-3.6762-3.2462-4.79-0.02-0.1675 0.155-0.30625 0.34625-0.30625 0.12125 0 0.22875 0.0675 0.29375 0.1475 0.65625 1.08 1.845 1.8 3.2 1.8 2.0675 0 3.745-1.6738 3.745-3.7425 0-3.0988-2.8275-6.2188-4.0862-7.4775" fill="#d70025"/>
  <path d="m140.56 24.152c0.0288-1.3362 1.0175-1.6675 2.3562-1.6412 1.7725 0.0338 3.0775 0.9975 3.0775 0.9975v-1.8c-0.2125-0.0775-1.4225-0.48875-3.13-0.52125-1.8875-0.035-5.0075 0.76625-5.065 3.4825-0.0925 4.4662 6.6312 4.3188 6.5675 7.415-0.0362 1.7288-1.3038 2.02-2.8012 2.02-1.8 0-3.56-1.3625-3.8188-1.615v2.065c0.27875 0.12875 2.1362 0.9325 4.07 0.9725 2.365 0.045 5.2738-0.92125 5.3375-4.0675 0.0937-4.5162-6.65-4.6775-6.5938-7.3075m-49.962-3.335c0.0387-1.7675 1.8538-2.6912 3.6238-2.6588 2.3512 0.0475 3.905 1.48 3.905 1.48v-2.3788c-0.2825-0.10625-1.8838-0.6475-4.1425-0.68875-2.4938-0.0488-6.3188 1.0112-6.395 4.5988-0.1225 5.9062 9.15 5.5012 9.0638 9.5962-0.0462 2.2888-2.1188 3.2138-4.2812 3.1712-2.3775-0.045-4.81-1.8412-5.15-2.1725v2.4775c0.3675 0.17125 2.825 1.2338 5.38 1.2825 3.1262 0.06 6.9688-1.2138 7.0575-5.3712 0.12375-5.975-9.1325-5.8588-9.0613-9.3362m19.701 1.9355v-1.175h-4.005v-4.9662l-3.0575 1.5112v3.455h-2.3613v1.175h2.3613v9.005c0 3.345 1.7125 3.7825 4.6488 3.7825 1.1687 0 2.0462-0.28625 2.0462-0.28625v-1.3962s-0.34 0.125-1.41 0.125c-2.1875 0-2.2275-0.64125-2.2275-2.6962v-8.5338h4.005zm24.084-1.4974c-2.0512 0-3.395 1.4838-3.8238 2.735h-0.06v-2.55l-4.81-0.003v0.6475s1.7488 0.0475 1.7488 1.7425v11.39h3.0612v-7.0088c0-2.0538 0.88625-4.5912 3.9738-4.5912 0.52 0 1.0712 0.13125 1.5612 0.275v-2.49c-0.52375-0.09-1.1025-0.1475-1.6512-0.1475m-50.583 0c-2.0525 0-3.395 1.4838-3.8238 2.735h-0.06v-2.55l-4.81-0.003v0.6475s1.7525 0.0475 1.7525 1.7425v11.39h3.0575v-7.0088c0-2.0538 0.8875-4.5912 3.9738-4.5912 0.51875 0 1.0675 0.13125 1.5575 0.275v-2.49c-0.51875-0.09-1.0988-0.1475-1.6475-0.1475m-29.424 5.6344 5.4425-5.3125h-2.3238l-5.9612 5.8988v-10.486h-4.8125v0.64625s1.755 0.0475 1.755 1.7425v15.839h3.0575v-7.3625h0.0587l5.595 7.3625h3.885l-6.6962-8.3275zm65.904 0.68537c-1.1012 0.0263-4.6775 1.3075-4.6775 4.0962 0 1.3488 0.70125 2.285 1.835 2.285 1.535 0 2.8425-1.0425 2.8425-2.54v-3.8412zm0 6.2725c-0.5525 0.61125-1.59 1.6925-3.9438 1.6925-2.385 0-4.0962-1.6425-4.0962-3.37 0-4.1388 6.085-5.5962 8.04-5.6538v-1.495c0-1.85-0.70875-2.7675-2.1612-2.7675-1.9175 0-2.2975 1.7025-2.2975 2.9912h-3.2462c0.33875-1.9362 1.3475-3.99 5.75-3.99 3.795 0 5.0138 1.6612 5.0138 5.0475v8.915h-3.0588v-1.37zm-49.694-7.024c-0.1325-2.0025-0.6725-4.5675-3.095-4.5675-1.45 0-2.8962 1.4738-2.9938 4.5675h6.0888zm2.2888 7.455c-0.8075 0.585-2.0038 1.2638-4.4638 1.2638-2.8625 0-7.1825-1.79-7.1825-7.4212 0-4.9038 3.045-6.8638 6.435-6.8638 4.64 0 6.0888 3.9538 6.0888 7.1175h-9.32c0 3.8125 1.7362 5.5838 4.7988 5.5838 1.57 0 3.1475-0.82125 3.6438-1.32v1.64zm-51.23-7.6927h1.5888c2.4162 0 4.495-0.76375 4.495-4.2812 0-3.2888-1.6212-3.935-4.3412-3.935-1.6512 0-1.7425 0.5575-1.7425 1.76v6.4562zm-3.365-7.205c0-1.695-1.755-1.7425-1.755-1.7425v-0.64625h8.3612c3.76 0 6.205 1.9675 6.205 5.4275 0 5.5438-4.585 5.5438-8.3775 5.5438h-1.0688v7.2562h-3.365v-15.839zm20.962 1.477 1.0162 3.1275h3.285l-2.6575 1.93 1.0138 3.1238-2.6575-1.9312-2.6588 1.9312 1.015-3.1238-2.6562-1.93h3.285l1.015-3.1275z" fill="#fff"/>
  <path d="m148.62 34.158c0-0.6825 0.58625-1.245 1.3162-1.245 0.73 0 1.3162 0.5625 1.3162 1.245 0 0.68375-0.60375 1.2275-1.3162 1.2275-0.7125 0-1.3162-0.52625-1.3162-1.2275m32.134-7.3134c-1.81 0-2.56 0.925-2.8338 1.5388 0 0-0.005 0.0113-0.0425-0.075-0.36375-0.85625-1.2038-1.4638-2.425-1.4638-1.8088 0-2.3525 0.7275-2.6262 1.3412h-0.0362v-1.3412l-2.8912 0.003v0.39125s1.0625 0.0312 1.0625 1.0562v6.8975h1.8288v-4.9188c0-1.245 0.80875-2.235 2.015-2.235 1.225 0 1.4575 1.2262 1.4575 2.6125v4.5412h1.8275v-4.9188c0-1.245 0.80875-2.235 2.0162-2.235 1.2238 0 1.4575 1.2262 1.4575 2.6125v4.5412h1.8275v-5.875c0-1.35-0.97375-2.4725-2.6375-2.4725m-21.563 7.103c-0.46375 0.2375-1.125 0.46-1.7912 0.46-1.9362 0-3.0362-0.98375-3.0362-3.3862 0-3.0175 1.0188-3.7062 1.9375-3.7062 1.2025 0 1.6712 0.9575 1.62 1.9562h1.835c-0.2125-1.3712-1.2775-2.56-3.345-2.56-2.1462 0-4.0775 1.1888-4.0775 4.1588 0 3.4112 2.7375 4.4975 4.55 4.4975 1.1088 0 1.8075-0.21 2.3075-0.4575v-0.9625zm5.4362 0.83363c1.6088 0 1.9662-1.8262 1.9662-3.7338 0-1.9075-0.3575-3.7325-1.9662-3.7325-1.6062 0-1.9625 1.825-1.9625 3.7325s0.35625 3.7338 1.9625 3.7338m0 0.60375c-2.2775 0-4-1.3688-4-4.3375 0-2.9675 1.7225-4.3362 4-4.3362 2.2788 0 4.0025 1.3688 4.0025 4.3362 0 2.9688-1.7238 4.3375-4.0025 4.3375" fill="#acacac"/>
 </g>
</svg>
